<?xml version="1.0" encoding="UTF-8" standalone="no"?>
<!-- Created with Inkscape (http://www.inkscape.org/) -->

<svg
   version="1.1"
   id="svg2"
   xml:space="preserve"
   width="3777.0801"
   height="2921.76"
   viewBox="0 0 3777.0801 2921.76"
   sodipodi:docname="vecteezy_writing-creative-icon-design_15052178.eps"
   xmlns:inkscape="http://www.inkscape.org/namespaces/inkscape"
   xmlns:sodipodi="http://sodipodi.sourceforge.net/DTD/sodipodi-0.dtd"
   xmlns="http://www.w3.org/2000/svg"
   xmlns:svg="http://www.w3.org/2000/svg"><defs
     id="defs6" /><sodipodi:namedview
     id="namedview4"
     pagecolor="#ffffff"
     bordercolor="#666666"
     borderopacity="1.0"
     inkscape:pageshadow="2"
     inkscape:pageopacity="0.0"
     inkscape:pagecheckerboard="0" /><g
     id="g8"
     inkscape:groupmode="layer"
     inkscape:label="ink_ext_XXXXXX"
     transform="matrix(1.3333333,0,0,-1.3333333,0,2921.76)"><g
       id="g10"
       transform="scale(0.1)"><path
         d="M 17133.8,0.203125 H 2998.31 L 2983.33,0 C 1696.37,0 649.508,1047.3 649.508,2334.2 v 3274.3 c 0,179.2 145.433,324.6 324.75,324.6 H 4667.88 v 14996.3 c 0,542.5 441.15,983.8 983.82,983.8 h 14034.1 c 542.4,0 983.6,-441.3 983.6,-983.8 v -9602.3 l -0.2,-11.7 V 5600.2 4971.4 3535.5 C 20669.4,1586.3 19083.6,0.203125 17133.8,0.203125"
         style="fill:#ffeacc;fill-opacity:1;fill-rule:evenodd;stroke:none"
         id="path12" /><path
         d="M 2333.83,0 C 1046.98,0 0,1047.3 0,2334.2 V 5933.1 C 0,6112.3 145.551,6258 324.758,6258 l 4018.372,-0.2 c 179.2,0 324.75,-145.7 324.75,-324.7 V 2334.2 C 4667.88,1047.3 3620.79,0 2333.83,0"
         style="fill:#ffd3b8;fill-opacity:1;fill-rule:evenodd;stroke:none"
         id="path14" /><path
         d="m 2009.19,6257.8 h 649.39 V 3739.9 c 0,-179.4 -145.21,-324.9 -324.75,-324.9 -179.09,0 -324.64,145.7 -324.64,324.9 v 2517.9"
         style="fill:#ffeacc;fill-opacity:1;fill-rule:evenodd;stroke:none"
         id="path16" /><path
         d="M 14042.4,9233.6 H 6825.54 c -179.09,0 -324.64,145.6 -324.64,324.6 0,179.2 145.55,324.9 324.64,324.9 h 7216.86 c 179.2,0 324.7,-145.7 324.7,-324.9 0,-179 -145.2,-324.6 -324.7,-324.6 z m 3505.4,0 h -1769.1 c -179.2,0 -324.7,145.6 -324.7,324.6 0,179.2 145.7,324.9 324.7,324.9 h 1769.1 c 179.2,0 324.6,-145.7 324.6,-324.9 0,-179 -145.4,-324.6 -324.6,-324.6 v 0"
         style="fill:#803f33;fill-opacity:1;fill-rule:evenodd;stroke:none"
         id="path18" /><path
         d="M 8753.57,7576.1 H 6825.54 c -179.09,0 -324.64,145.7 -324.64,324.7 0,179.2 145.55,324.8 324.64,324.8 h 1928.03 c 179.2,0 324.75,-145.6 324.75,-324.8 0,-179 -145.55,-324.7 -324.75,-324.7 z m 6728.13,0 h -4835.6 c -179.2,0 -324.6,145.7 -324.6,324.7 0,179.2 145.4,324.8 324.6,324.8 h 4835.6 c 179.2,0 324.7,-145.6 324.7,-324.8 0,-179 -145.5,-324.7 -324.7,-324.7 v 0"
         style="fill:#803f33;fill-opacity:1;fill-rule:evenodd;stroke:none"
         id="path20" /><path
         d="M 16823.8,5918.3 H 6825.54 c -179.09,0 -324.64,145.6 -324.64,324.6 0,179.2 145.55,324.9 324.64,324.9 h 9998.26 c 179.4,0 324.8,-145.7 324.8,-324.9 0,-179 -145.4,-324.6 -324.8,-324.6"
         style="fill:#803f33;fill-opacity:1;fill-rule:evenodd;stroke:none"
         id="path22" /><path
         d="M 8753.57,4260.6 H 6825.54 c -179.09,0 -324.64,145.7 -324.64,324.7 0,179.2 145.55,324.8 324.64,324.8 h 1928.03 c 179.2,0 324.75,-145.6 324.75,-324.8 0,-179 -145.55,-324.7 -324.75,-324.7 z m 8056.93,0 h -6164.4 c -179.2,0 -324.6,145.7 -324.6,324.7 0,179.2 145.4,324.8 324.6,324.8 h 6164.4 c 179.2,0 324.8,-145.6 324.8,-324.8 0,-179 -145.6,-324.7 -324.8,-324.7 v 0"
         style="fill:#803f33;fill-opacity:1;fill-rule:evenodd;stroke:none"
         id="path24" /><path
         d="M 14042.4,2602.8 H 6825.54 c -179.09,0 -324.64,145.6 -324.64,324.8 0,179 145.55,324.7 324.64,324.7 h 7216.86 c 179.2,0 324.7,-145.7 324.7,-324.7 0,-179.2 -145.2,-324.8 -324.7,-324.8 z m 3505.4,0 h -1769.1 c -179.2,0 -324.7,145.6 -324.7,324.8 0,179 145.7,324.7 324.7,324.7 h 1769.1 c 179.2,0 324.6,-145.7 324.6,-324.7 0,-179.2 -145.4,-324.8 -324.6,-324.8 v 0"
         style="fill:#803f33;fill-opacity:1;fill-rule:evenodd;stroke:none"
         id="path26" /><path
         d="m 23820.6,18050.7 650.4,1126.5 c 273.6,473.5 785.1,767.8 1335.3,767.8 268.1,0 532.9,-70.7 765.2,-204.9 l 987.9,-570.6 c 734.4,-423.9 986.7,-1366 563.2,-2100.2 l -650.6,-1126.7 -3651.4,2108.1"
         style="fill:#f44336;fill-opacity:1;fill-rule:evenodd;stroke:none"
         id="path28" /><path
         d="m 18299.7,8488.4 5564.6,9637.9 3651.4,-2108.2 -5564.6,-9637.9 -3651.4,2108.2"
         style="fill:#ffc107;fill-opacity:1;fill-rule:evenodd;stroke:none"
         id="path30" /><path
         d="m 22769.2,10440 c -55.3,0 -111.2,14.2 -162.3,43.7 -155.3,89.4 -208.4,288.2 -118.6,443.4 l 2931,5076.7 c 89.8,155.4 289,207.8 443.7,118.8 155.1,-89.5 208.5,-288.2 118.7,-443.4 l -2931,-5076.6 c -60.4,-104 -169.6,-162.6 -281.5,-162.6"
         style="fill:#ffcd36;fill-opacity:1;fill-rule:evenodd;stroke:none"
         id="path32" /><path
         d="m 19865.9,7584.2 -562.1,324.5 2768.4,4795.5 c 89.6,155.3 288.9,208.1 443.6,118.8 155.3,-89.5 208.4,-288.1 118.8,-443.7 L 19865.9,7584.2"
         style="fill:#ffcd36;fill-opacity:1;fill-rule:evenodd;stroke:none"
         id="path34" /><path
         d="m 18480.5,4260.6 c -56.3,0 -112.1,14.4 -162.3,43.5 -98.9,57.2 -160.3,161.6 -162.4,275.5 l 143.9,3908.8 3651.4,-2108.2 -3313.5,-2078.6 c -48.8,-27.5 -102.9,-41 -157.1,-41"
         style="fill:#ffe082;fill-opacity:1;fill-rule:evenodd;stroke:none"
         id="path36" /><path
         d="m 18480.5,4260.6 c -56.3,0 -112.1,14.4 -162.3,43.5 -98.9,57.2 -160.3,161.6 -162.4,275.5 l 81.8,2219.8 2281.9,-1317.2 -1881.9,-1180.6 c -48.8,-27.5 -102.9,-41 -157.1,-41"
         style="fill:#803f33;fill-opacity:1;fill-rule:evenodd;stroke:none"
         id="path38" /><path
         d="m 27472,15942.6 -3651.4,2108.1 -648.8,-1123.9 2357.1,-1361.2 9.5,-4.9 9.6,-6.1 1275,-736.2 649,1124.2"
         style="fill:#ffdb6c;fill-opacity:1;fill-rule:evenodd;stroke:none"
         id="path40" /><path
         d="m 9102.52,15951.6 c 27.92,0 55.83,5.2 82.51,15.9 78.46,30.7 133.17,102.6 142.06,186.5 113.58,1089.4 1026.31,1910.9 2123.11,1910.9 178.4,0 345,-14.8 495.5,-44.2 117.3,-22.9 231.8,49.4 261.6,164.6 37,142.2 55.8,296.9 55.8,459.7 0,845.7 -688,1533.8 -1533.5,1533.8 -640,0 -1013.59,-287.1 -1308.18,-745.8 -294.58,458.7 -668.19,745.8 -1308.12,745.8 -845.71,0 -1533.72,-688.1 -1533.72,-1533.8 0,-954.7 629.81,-1383.1 1359.01,-1878.9 310.12,-211.1 662.11,-450.3 1015.35,-758.9 41.98,-36.3 94.89,-55.6 148.58,-55.6"
         style="fill:#fe707a;fill-opacity:1;fill-rule:evenodd;stroke:none"
         id="path42" /><path
         d="m 13810.9,10713.1 c 57.9,0 115.6,22.1 159.6,66.2 837.6,838 1675.6,1407.5 2414.5,1910.2 1325.8,901.4 2372.9,1613.4 2372.9,3240.8 0,1426.1 -1160.4,2586.2 -2586.6,2586.2 -1192.3,0 -1824.9,-570 -2360.6,-1514.5 -535.7,944.5 -1168.3,1514.5 -2360.6,1514.5 -1426.1,0 -2586.33,-1160.1 -2586.33,-2586.2 0,-1627.4 1047.2,-2339.5 2372.73,-3240.8 739.3,-502.7 1576.9,-1072.2 2414.6,-1910.2 44.3,-44.1 102,-66.2 159.8,-66.2"
         style="fill:#fe4e5b;fill-opacity:1;fill-rule:evenodd;stroke:none"
         id="path44" /><path
         d="m 17098,14981.9 c 75.8,0 150.1,38.2 192.7,107.9 145,237 212.3,503.8 212.3,840.2 0,734.3 -597.3,1331.5 -1331.5,1331.5 -124.7,0 -225.8,-101.3 -225.8,-225.7 0,-124.5 101.1,-225.8 225.8,-225.8 485.2,0 879.9,-394.7 879.9,-879.9 0,-252.9 -44.8,-439.6 -146.2,-604.6 -64.8,-106.4 -31.5,-245.2 75,-310.3 36.7,-22.8 77.7,-33.3 117.8,-33.3"
         style="fill:#fe707a;fill-opacity:1;fill-rule:evenodd;stroke:none"
         id="path46" /></g></g></svg>
